<svg xmlns="http://www.w3.org/2000/svg" width="24px" height="24px">
  <path d="M3.1,9.4 C3.03333333,9.36666667 3,9.3125 3,9.2375 C3,9.1625 3.01666667,9.09166667 3.05,9.025 C4.08333333,7.59166667 5.39166667,6.48333333 6.975,5.7 C8.55833333,4.91666667 10.25,4.525 12.05,4.525 C13.85,4.525 15.5458333,4.90833333 17.1375,5.675 C18.7291667,6.44166667 20.05,7.54166667 21.1,8.975 C21.15,9.05833333 21.1708333,9.125 21.1625,9.175 C21.1541667,9.225 21.125,9.275 21.075,9.325 C21.025,9.375 20.9625,9.4 20.8875,9.4 C20.8125,9.4 20.7416667,9.35833333 20.675,9.275 C19.6916667,7.90833333 18.4375,6.85833333 16.9125,6.125 C15.3875,5.39166667 13.7666667,5.025 12.05,5.025 C10.3333333,5.025 8.725,5.39583333 7.225,6.1375 C5.725,6.87916667 4.475,7.925 3.475,9.275 C3.40833333,9.35833333 3.34583333,9.40833333 3.2875,9.425 C3.22916667,9.44166667 3.16666667,9.43333333 3.1,9.4 Z M15.025,21.975 C13.3083333,21.5416667 11.8958333,20.6833333 10.7875,19.4 C9.67916667,18.1166667 9.125,16.5583333 9.125,14.725 C9.125,13.9416667 9.4125,13.2833333 9.9875,12.75 C10.5625,12.2166667 11.25,11.95 12.05,11.95 C12.85,11.95 13.5375,12.2166667 14.1125,12.75 C14.6875,13.2833333 14.975,13.9416667 14.975,14.725 C14.975,15.3583333 15.2208333,15.8916667 15.7125,16.325 C16.2041667,16.7583333 16.775,16.975 17.425,16.975 C18.0583333,16.975 18.6125,16.7583333 19.0875,16.325 C19.5625,15.8916667 19.8,15.3583333 19.8,14.725 C19.8,12.675 19.0375,10.9583333 17.5125,9.575 C15.9875,8.19166667 14.1666667,7.5 12.05,7.5 C9.93333333,7.5 8.1125,8.19166667 6.5875,9.575 C5.0625,10.9583333 4.3,12.675 4.3,14.725 C4.3,15.125 4.34583333,15.6458333 4.4375,16.2875 C4.52916667,16.9291667 4.725,17.6583333 5.025,18.475 C5.05833333,18.5583333 5.05833333,18.6208333 5.025,18.6625 C4.99166667,18.7041667 4.95,18.7416667 4.9,18.775 C4.83333333,18.8083333 4.7625,18.8166667 4.6875,18.8 C4.6125,18.7833333 4.55833333,18.7333333 4.525,18.65 C4.30833333,18.0166667 4.1375,17.3708333 4.0125,16.7125 C3.8875,16.0541667 3.825,15.3916667 3.825,14.725 C3.825,12.575 4.64166667,10.7375 6.275,9.2125 C7.90833333,7.6875 9.83333333,6.925 12.05,6.925 C14.3166667,6.925 16.2625,7.675 17.8875,9.175 C19.5125,10.675 20.325,12.525 20.325,14.725 C20.325,15.4916667 20.0416667,16.1416667 19.475,16.675 C18.9083333,17.2083333 18.225,17.475 17.425,17.475 C16.6083333,17.475 15.9083333,17.2083333 15.325,16.675 C14.7416667,16.1416667 14.45,15.4916667 14.45,14.725 C14.45,14.075 14.2125,13.5333333 13.7375,13.1 C13.2625,12.6666667 12.7,12.45 12.05,12.45 C11.4,12.45 10.8333333,12.6666667 10.35,13.1 C9.86666667,13.5333333 9.625,14.075 9.625,14.725 C9.625,16.4583333 10.15,17.9041667 11.2,19.0625 C12.25,20.2208333 13.5583333,21.0333333 15.125,21.5 C15.225,21.5333333 15.2875,21.575 15.3125,21.625 C15.3375,21.675 15.3416667,21.7333333 15.325,21.8 C15.3083333,21.8833333 15.275,21.9416667 15.225,21.975 C15.175,22.0083333 15.1083333,22.0083333 15.025,21.975 Z M6.2,3.975 C6.11666667,4.00833333 6.05416667,4.0125 6.0125,3.9875 C5.97083333,3.9625 5.93333333,3.925 5.9,3.875 C5.86666667,3.84166667 5.85,3.79166667 5.85,3.725 C5.85,3.65833333 5.875,3.60833333 5.925,3.575 C6.875,3.05833333 7.87083333,2.66666667 8.9125,2.4 C9.95416667,2.13333333 11,2 12.05,2 C13.1333333,2 14.1958333,2.13333333 15.2375,2.4 C16.2791667,2.66666667 17.275,3.04166667 18.225,3.525 C18.3083333,3.55833333 18.3541667,3.60833333 18.3625,3.675 C18.3708333,3.74166667 18.3583333,3.8 18.325,3.85 C18.2916667,3.9 18.2458333,3.94166667 18.1875,3.975 C18.1291667,4.00833333 18.0583333,4.00833333 17.975,3.975 C17.0583333,3.525 16.1,3.17083333 15.1,2.9125 C14.1,2.65416667 13.0833333,2.525 12.05,2.525 C11.0166667,2.525 10.0083333,2.64583333 9.025,2.8875 C8.04166667,3.12916667 7.1,3.49166667 6.2,3.975 L6.2,3.975 Z M9.55,21.7 C8.58333333,20.7 7.82916667,19.65 7.2875,18.55 C6.74583333,17.45 6.475,16.175 6.475,14.725 C6.475,13.2416667 7.02083333,11.9916667 8.1125,10.975 C9.20416667,9.95833333 10.5166667,9.45 12.05,9.45 C13.5833333,9.45 14.9041667,9.95833333 16.0125,10.975 C17.1208333,11.9916667 17.675,13.2416667 17.675,14.725 C17.675,14.8083333 17.6541667,14.8708333 17.6125,14.9125 C17.5708333,14.9541667 17.5083333,14.975 17.425,14.975 C17.3416667,14.975 17.275,14.9541667 17.225,14.9125 C17.175,14.8708333 17.15,14.8083333 17.15,14.725 C17.15,13.375 16.6458333,12.2416667 15.6375,11.325 C14.6291667,10.4083333 13.4333333,9.95 12.05,9.95 C10.6666667,9.95 9.47916667,10.4083333 8.4875,11.325 C7.49583333,12.2416667 7,13.375 7,14.725 C7,16.1416667 7.24583333,17.35 7.7375,18.35 C8.22916667,19.35 8.95833333,20.35 9.925,21.35 C9.99166667,21.4166667 10.0208333,21.4791667 10.0125,21.5375 C10.0041667,21.5958333 9.975,21.65 9.925,21.7 C9.89166667,21.7333333 9.8375,21.7625 9.7625,21.7875 C9.6875,21.8125 9.61666667,21.7833333 9.55,21.7 Z M17.2,19.875 C15.7333333,19.875 14.4625,19.3875 13.3875,18.4125 C12.3125,17.4375 11.775,16.2083333 11.775,14.725 C11.775,14.6416667 11.7958333,14.575 11.8375,14.525 C11.8791667,14.475 11.9416667,14.45 12.025,14.45 C12.1083333,14.45 12.1708333,14.475 12.2125,14.525 C12.2541667,14.575 12.275,14.6416667 12.275,14.725 C12.275,16.075 12.7708333,17.1875 13.7625,18.0625 C14.7541667,18.9375 15.9,19.375 17.2,19.375 C17.3333333,19.375 17.4916667,19.3666667 17.675,19.35 C17.8583333,19.3333333 18.0583333,19.3083333 18.275,19.275 C18.3583333,19.2583333 18.425,19.2708333 18.475,19.3125 C18.525,19.3541667 18.5583333,19.4 18.575,19.45 C18.5916667,19.5166667 18.5875,19.575 18.5625,19.625 C18.5375,19.675 18.4833333,19.7083333 18.4,19.725 C18.1,19.8083333 17.8375,19.8541667 17.6125,19.8625 C17.3875,19.8708333 17.25,19.875 17.2,19.875 Z"></path>
</svg>
