<?xml version="1.0" encoding="UTF-8"?>
<svg width="512px" height="512px" viewBox="0 0 512 512" version="1.1" xmlns="http://www.w3.org/2000/svg"
    xmlns:xlink="http://www.w3.org/1999/xlink">
    <g id="FavIcon" stroke="none" stroke-width="1" fill-rule="evenodd">
        <path
            d="M354.037512,172.682215 C383.703567,201.720049 399,232.951288 399,266 C399,273.010766 394.190328,278.898173 387.690616,280.542589 C416.779942,299.552216 436,332.406566 436,369.75 C436,428.568326 388.318326,476.25 329.5,476.25 C323.826866,476.25 318.257336,475.80642 312.824202,474.952051 C312.260556,476.77287 311.334891,478.518182 310.03946,480.078733 L309.362379,480.887381 C304.292089,486.894192 295.313578,496.513413 282.259203,509.951772 C276.486849,515.893916 266.990372,516.031558 261.048228,510.259203 C255.106084,504.486849 254.968442,494.990372 260.740797,489.048228 L265.591363,484.035503 C273.077791,476.266065 278.873628,470.085761 282.93246,465.551829 C270.357034,459.432234 259.169246,450.907138 249.963759,440.577048 C231.170491,464.930312 214.648472,483.853252 200.299353,497.405197 C194.276579,503.093373 184.782978,502.822127 179.094803,496.799353 C173.406627,490.776579 173.677873,481.282978 179.700647,475.594803 L180.749965,474.597129 C195.138476,460.826475 212.454302,440.575907 232.567284,413.923489 C226.422524,400.467284 223,385.508329 223,369.75 C223,321.698033 254.823542,281.078852 298.54446,267.818626 C297.866139,265.55718 296.935221,263.144616 295.742361,260.587982 L295.451167,259.971892 C291.874333,252.499583 295.032241,243.542482 302.50455,239.965648 C309.97686,236.388815 318.93396,239.546722 322.510794,247.019032 C325.16289,252.559486 327.124989,257.969339 328.367413,263.259605 L329.5,263.25 C343.809522,263.25 357.4599,266.072126 369.924918,271.19016 C369.360287,269.667212 369.038353,268.025746 369.003218,266.313828 L369,266 C369,241.715379 357.326445,217.881091 333.052524,194.121205 C309.889,171.448202 275.719018,163.740518 229.046992,171.78218 C220.88302,173.188844 213.124485,167.710964 211.71782,159.546992 C210.311156,151.38302 215.789036,143.624485 223.953008,142.21782 C279.401029,132.664042 323.26106,142.557498 354.037512,172.682215 Z M329.5,293.25 C287.250217,293.25 253,327.500217 253,369.75 C253,411.999783 287.250217,446.25 329.5,446.25 C371.749783,446.25 406,411.999783 406,369.75 C406,327.500217 371.749783,293.25 329.5,293.25 Z M221.943609,287.700556 C227.04281,346.341366 205.479406,396.103067 158.094106,435.530531 C151.725969,440.829209 142.268148,439.962242 136.969469,433.594106 C131.670791,427.225969 132.537758,417.768148 138.905894,412.469469 C178.853927,379.230266 196.290524,338.991967 192.056391,290.299444 C191.338728,282.046317 197.447428,274.774054 205.700556,274.056391 C213.953683,273.338728 221.225946,279.447428 221.943609,287.700556 Z M361.93787,331.599112 L383.06213,352.900888 L312.455714,422.918917 L276.393398,386.856602 L297.606602,365.643398 L312.544,380.581 L361.93787,331.599112 Z M189.01503,176.231141 C193.518367,183.047003 191.732279,192.190247 185.053949,196.822025 L184.768859,197.01503 C170.222774,206.625836 159.235635,226.427783 152.588543,257.15343 L152.294,258.535 L152.280166,258.644892 C151.135806,267.401819 151.20937,273.892074 152.222974,284.611998 L153.014191,292.651177 C153.157439,294.184208 153.251861,295.32887 153.328058,296.462173 L153.354244,296.862305 C153.392537,297.463637 153.426731,298.074216 153.461367,298.749985 C153.954929,308.379824 153.13203,316.738023 150.348616,325.872325 C144.935254,343.637302 131.771879,362.548066 111.079121,383.134012 C105.206118,388.976699 95.7086753,388.952123 89.8659883,383.079121 C84.0233013,377.206118 84.0478768,367.708675 89.9208793,361.865988 C107.417447,344.459735 117.920738,329.3705 121.651384,317.127675 C123.340689,311.583901 123.826741,306.64706 123.500693,300.285572 L123.449809,299.354329 L123.377171,298.230631 C123.251841,296.464293 123.054446,294.430202 122.606155,289.989304 C121.13376,275.403364 120.935726,266.524203 122.636019,253.984545 C122.682964,253.638325 122.741991,253.293851 122.812992,252.951753 C130.878004,214.093063 145.740751,186.844692 168.231141,171.98497 C175.143001,167.418205 184.448265,169.319281 189.01503,176.231141 Z M96.1241828,175.727125 C102.808164,180.423976 104.489511,189.58706 99.9676356,196.340288 L99.7728755,196.624183 C92.8498688,206.476154 86.5464369,228.615036 81.8547447,262.082441 C80.7046444,270.28649 73.1216081,276.004845 64.9175592,274.854745 C56.7135102,273.704644 50.995155,266.121608 52.1452553,257.917559 L52.4662276,255.660002 C57.7493113,219.021604 65.0250044,193.894219 75.2271245,179.375817 C79.9901292,172.597695 89.3460608,170.96412 96.1241828,175.727125 Z M286.248294,209.448117 C294.008934,212.34667 297.950435,220.987653 295.051883,228.748294 C292.15333,236.508934 283.512347,240.450435 275.751706,237.551883 C254.425496,229.586672 240.091206,233.776695 228.39721,250.944476 C223.733455,257.791267 214.402314,259.560966 207.555524,254.89721 C200.708733,250.233455 198.939034,240.902314 203.60279,234.055524 C223.242127,205.223305 252.24117,196.746661 286.248294,209.448117 Z M303.817399,70.4938819 C384.519225,91.7312045 437.537833,137.897067 461.215677,208.213088 C463.859415,216.06419 459.638013,224.571939 451.786912,227.215677 C443.93581,229.859415 435.428061,225.638013 432.784323,217.786912 C412.462167,157.436266 367.480775,118.268796 296.182601,99.5061181 C288.171093,97.3978265 283.38559,89.1941083 285.493882,81.1826005 C287.602173,73.1710927 295.805892,68.3855904 303.817399,70.4938819 Z M249.082046,78.7562624 C250.083939,86.9797264 244.2297,94.4583563 236.006236,95.4602498 C213.085224,98.2527972 190.265161,105.52822 171.688107,118.727706 C159.132421,127.648851 148.33246,136.183387 139.295998,144.311197 C133.136651,149.851196 123.652457,149.349117 118.112457,143.18977 C112.572457,137.030423 113.074537,127.546229 119.233884,122.006229 C129.175966,113.063863 140.866045,103.825923 154.311893,94.2722939 C177.568842,77.7476196 204.929352,69.0246248 232.378058,65.6804525 C240.601522,64.6785589 248.080152,70.5327985 249.082046,78.7562624 Z M132.835853,29.1105276 C230.91375,-10.8857777 314.154175,-10.8857777 381.327256,30.2041386 C388.394215,34.5270125 390.618735,43.7602965 386.295861,50.8272556 C381.972987,57.8942148 372.739703,60.1187353 365.672744,55.7958614 C307.512492,20.219111 234.08625,20.219111 144.164147,56.8894724 C136.493203,60.0176942 127.738749,56.3350903 124.610528,48.6641466 C121.482306,40.9932028 125.16491,32.2387493 132.835853,29.1105276 Z"
            id="Combined-Shape" fill-rule="nonzero"></path>
    </g>
</svg>