<?xml version="1.0" encoding="UTF-8"?>
<svg width="512px" height="512px" viewBox="0 0 512 512" version="1.1" xmlns="http://www.w3.org/2000/svg" xmlns:xlink="http://www.w3.org/1999/xlink">
    <g id="Icon" stroke="none" stroke-width="1" fill-rule="evenodd">
        <path d="M355.798102,254.271502 C355.877127,254.605164 355.933177,254.943852 355.965858,255.285184 C357.796916,274.409564 358.3051,291.393501 357.838192,307.72437 C357.831199,307.968957 357.812571,308.210474 357.782855,308.448405 C364.904564,308.932356 371.782587,310.303964 378.307176,312.453466 C378.375544,309.638766 378.440652,306.443751 378.501074,302.873104 C378.569782,298.812768 381.852749,295.560749 385.884134,295.50082 L386.126896,295.50082 C390.268438,295.571156 393.569009,298.985353 393.498926,303.126896 L393.372245,309.758633 C393.295251,313.318274 393.211838,316.394559 393.121776,318.990855 C418.713655,333.382708 436,360.797633 436,392.25 C436,438.641919 398.391919,476.25 352,476.25 C337.355211,476.25 323.585739,472.502318 311.598321,465.913688 C303.978339,476.391138 292.38898,489.32594 276.784787,504.82175 C273.845665,507.740458 269.096957,507.723908 266.17825,504.784787 C263.259542,501.845665 263.276092,497.096957 266.215213,494.17825 L268.347622,492.051301 C282.154659,478.217538 292.433219,466.682557 299.143429,457.535762 C293.220799,452.737921 287.965738,447.149166 283.536552,440.931342 C269.504565,463.678742 252.110808,485.174209 231.712666,504.892413 C228.734518,507.771289 223.986463,507.690813 221.107587,504.712666 C218.228711,501.734518 218.309187,496.986463 221.287334,494.107587 C242.833694,473.27944 260.837281,450.424868 274.854298,426.231329 C274.911305,426.132935 274.970205,426.036321 275.030926,425.941507 C270.508901,415.628799 268,404.232392 268,392.25 C268,389.964026 268.091314,387.69938 268.270494,385.45951 C266.702749,385.624042 265.069812,385.295899 263.61648,384.416251 C260.072883,382.271442 258.93894,377.660077 261.083749,374.11648 C267.973254,362.73382 271.11156,350.031155 270.506781,335.81886 C270.330679,331.68047 273.542749,328.182883 277.68114,328.006781 C281.81953,327.830679 285.317117,331.042749 285.493219,335.18114 C285.574314,337.086874 285.598537,338.974144 285.565898,340.842686 C291.946068,332.605008 299.825995,325.587944 308.79508,320.198178 C310.043316,303.852242 309.47602,287.592991 307.082704,271.610727 C305.864182,263.473595 301.644736,253.979841 294.305605,243.228413 C291.970317,239.807343 292.850518,235.140893 296.271587,232.805605 C299.692657,230.470317 304.359107,231.350518 306.694395,234.771587 C315.210776,247.247624 320.324663,258.75387 321.917296,269.389273 C323.988222,283.218656 324.781178,297.234392 324.304403,311.32457 L324.244011,312.944418 C330.198362,310.860141 336.458818,309.427966 342.939873,308.732918 C342.863804,308.268656 342.830271,307.787015 342.844319,307.295687 C343.280746,292.030934 342.832291,276.165237 341.187018,258.340666 L341.084,257.248 L340.927003,256.60145 C331.706012,219.862699 298.927543,190.855459 262.758648,190.98539 L261.6504,190.998492 C219.93354,191.83522 191.684223,214.810402 181.633549,259.699618 L181.499,260.31 L181.479211,277.42327 C181.423528,295.469974 181.233747,303.628731 180.656873,310.703728 L180.612877,311.232459 C180.583058,311.583774 180.552255,311.932931 180.520437,312.281028 L180.427214,313.268783 L180.361946,313.926892 C180.262143,314.91486 180.15373,315.908322 180.035981,316.932568 C179.971112,317.496844 179.903716,318.060196 179.83321,318.626596 L179.725045,319.478979 C179.116505,324.185117 178.276388,329.23384 176.876604,336.854886 C176.805891,337.23988 176.705146,337.618747 176.575294,337.988015 C167.620148,363.454212 152.275413,384.795739 130.650027,401.884492 C127.400112,404.452631 122.683647,403.899942 120.115508,400.650027 C117.547369,397.400112 118.100058,392.683647 121.349973,390.115508 C140.506176,374.977946 154.056512,356.283457 162.105674,333.908929 L162.231,333.554 L162.92801,329.697103 C163.84281,324.543531 164.440052,320.767142 164.891248,317.224344 L165.134131,315.219432 C165.291918,313.846905 165.431764,312.52765 165.555667,311.188065 L165.718496,309.297167 C166.339337,301.504025 166.477513,291.955988 166.497263,267.236026 L166.5,259.5 C166.5,258.973439 166.555453,258.448341 166.665441,257.933395 C177.900853,205.331243 212.250435,176.986305 261.3496,176.001508 C305.83442,175.109262 345.339554,210.113187 355.798102,254.271502 Z M260.418021,401.439382 C263.765208,403.879387 264.500624,408.570834 262.060618,411.918021 L259.709046,415.133381 C234.480003,449.51579 212.99044,475.102989 195.149676,491.952599 C192.138289,494.796686 187.391489,494.661064 184.547401,491.649676 C181.703314,488.638289 181.838936,483.891489 184.850324,481.047401 L185.911717,480.038389 C203.328572,463.374026 224.702298,437.702082 249.939382,403.081979 C252.379387,399.734792 257.070834,398.999376 260.418021,401.439382 Z M239.202777,335.032999 C243.326687,335.421132 246.355134,339.078866 245.967001,343.202777 C243.098907,373.676272 217.207015,414.486009 168.47934,466.621214 C165.650972,469.64737 160.904943,469.807709 157.878786,466.97934 C154.85263,464.150972 154.692291,459.404943 157.52066,456.378786 C204.126318,406.513991 228.567759,367.990395 231.032999,341.797223 C231.421132,337.673313 235.078866,334.644866 239.202777,335.032999 Z M352,323.25 C313.892352,323.25 283,354.142352 283,392.25 C283,430.357648 313.892352,461.25 352,461.25 C390.107648,461.25 421,430.357648 421,392.25 C421,354.142352 390.107648,323.25 352,323.25 Z M389.218935,356.924556 L399.781065,367.575444 L334.477857,432.334459 L303.696699,401.553301 L314.303301,390.946699 L334.522,411.165 L389.218935,356.924556 Z M214.471804,288.350278 C219.354738,344.504016 198.823036,391.884867 153.297053,429.765265 C150.112985,432.414604 145.384074,431.981121 142.734735,428.797053 C140.085396,425.612985 140.518879,420.884074 143.702947,418.234735 C185.510297,383.448466 203.978595,340.829317 199.528196,289.649722 C199.169364,285.523158 202.223714,281.887027 206.350278,281.528196 C210.476842,281.169364 214.112973,284.223714 214.471804,288.350278 Z M182.757515,180.365571 C185.040897,183.821501 184.09036,188.474133 180.634429,190.757515 C164.21472,201.606251 152.295618,223.072858 145.267671,255.523615 L144.897,257.265 L144.842078,257.682983 C143.556013,267.525039 143.703565,274.710633 144.90859,286.891178 L145.499198,292.846369 C145.679577,294.745098 145.785236,296.026744 145.869164,297.339774 L145.945658,298.647179 C145.954204,298.805998 145.962692,298.967918 145.971198,299.133882 C146.422882,307.946633 145.684194,315.449492 143.174308,323.686162 C138.181625,340.070602 125.683271,358.025984 105.78956,377.817006 C102.853059,380.738349 98.1043377,380.726062 95.1829942,377.78956 C92.2616506,374.853059 92.2739384,370.104338 95.2104396,367.182994 C113.506055,348.981818 124.674367,332.9372 128.825692,319.313838 C130.718423,313.102482 131.316279,307.494806 131.026672,300.665596 L130.93122,298.815702 C130.834447,297.183702 130.70999,295.710167 130.431425,292.870597 L130.068231,289.236036 C128.650019,275.186842 128.46353,266.825308 130.068009,254.992272 C130.091482,254.819162 130.120996,254.646925 130.156496,254.475877 C137.855668,217.379865 151.787042,191.839013 172.365571,178.242485 C175.821501,175.959103 180.474133,176.90964 182.757515,180.365571 Z M261.5,248.5 C274.799434,248.5 284.193046,255.484994 288.162981,268.277006 C288.34915,268.876884 288.459078,269.497292 288.49055,270.123614 L288.5,270.5 L288.5,306.5 C288.5,310.642136 285.142136,314 281,314 C276.939083,314 273.631982,310.772526 273.503854,306.742731 L273.5,306.5 L273.5,271.714 L273.385824,271.402488 C271.325184,265.923862 267.863992,263.588653 261.849813,263.502483 L261.5,263.5 C255.269649,263.5 251.714443,265.818504 249.614176,271.402488 L249.5,271.711 L249.5,306.5 C249.5,310.560917 246.272526,313.868018 242.242731,313.996146 L242,314 C237.939083,314 234.631982,310.772526 234.503854,306.742731 L234.5,306.5 L234.5,270.5 C234.5,269.746277 234.613616,268.99686 234.837019,268.277006 C238.806954,255.484994 248.200566,248.5 261.5,248.5 Z M397.324988,178.435607 C422.59766,216.786446 434.364414,267.629765 430.46389,307.23508 C430.057917,311.357273 426.387113,314.369864 422.26492,313.96389 C418.142727,313.557917 415.130136,309.887113 415.53611,305.76492 C419.107084,269.505798 408.136298,222.101799 384.800012,186.689393 C355.645443,142.447844 310.394957,118.911568 249.056968,123.47929 C159.179429,130.172299 112.517387,188.184566 107.993903,300.302348 C107.826921,304.441116 104.336421,307.660885 100.197652,307.493903 C96.0588838,307.326921 92.8391147,303.836421 93.0060968,299.697652 C97.8159461,180.4821 149.820571,115.827701 247.943032,108.52071 C314.841906,103.538878 365.245411,129.75541 397.324988,178.435607 Z M348.791265,178.041963 C377.109286,205.760309 391.5,235.142311 391.5,266 C391.5,270.142136 388.142136,273.5 384,273.5 C379.939083,273.5 376.631982,270.272526 376.503854,266.242731 L376.5,266 C376.5,239.524356 363.920726,213.840831 338.298771,188.761457 C313.232015,164.225526 276.639521,155.971399 227.773496,164.39109 C223.69151,165.094422 219.812243,162.355482 219.10891,158.273496 C218.405578,154.19151 221.144518,150.312243 225.226504,149.60891 C278.480527,140.433161 319.918045,149.780174 348.791265,178.041963 Z M91.8120914,181.863562 C95.2011523,184.245065 96.01794,188.92303 93.6364377,192.312091 C85.8416011,203.404744 79.2732185,226.474185 74.4273724,261.04122 C73.8523222,265.143245 70.0608041,268.002423 65.9587796,267.427372 C61.8567551,266.852322 58.9975775,263.060804 59.5726276,258.95878 C64.7267815,222.192482 71.8250656,197.261923 81.3635623,183.687909 C83.7450646,180.298848 88.4230304,179.48206 91.8120914,181.863562 Z M283.624147,216.474059 C287.504467,217.923335 289.475218,222.243826 288.025941,226.124147 C286.576665,230.004467 282.256174,231.975218 278.375853,230.525941 C253.879415,221.376669 235.878936,226.638348 222.198605,246.722238 C219.866727,250.145633 215.201157,251.030483 211.777762,248.698605 C208.354367,246.366727 207.469517,241.701157 209.801395,238.277762 C227.454397,212.361652 252.787252,204.956664 283.624147,216.474059 Z M301.9087,77.746941 C380.259613,98.3656022 431.268917,142.781867 454.107839,210.606544 C455.429708,214.532095 453.319007,218.785969 449.393456,220.107839 C445.467905,221.429708 441.214031,219.319007 439.892161,215.393456 C418.731083,152.551466 371.740387,111.634398 298.0913,92.253059 C294.085546,91.1989133 291.692795,87.0970541 292.746941,83.0913003 C293.801087,79.0855464 297.902946,76.6927952 301.9087,77.746941 Z M248.5,72 C252.642136,72 256,75.3578644 256,79.5 C256,83.5609173 252.772526,86.8680175 248.742731,86.9961464 L247.824215,87.0107905 C247.659759,87.014758 247.469795,87.0199954 247.254926,87.0267808 L246.379565,87.0588326 C245.620528,87.090254 244.788097,87.1336971 243.886267,87.1909815 L243.336873,87.2270277 C239.04179,87.5176724 234.236829,88.042911 229.0534,88.8613472 C214.252202,91.1983784 199.464552,95.4011843 185.738425,101.903034 C179.196654,105.001767 173.04446,108.563564 167.344053,112.613853 C142.552398,130.228977 124.398511,146.437805 112.906288,161.122312 C110.353455,164.384264 105.639641,164.95912 102.377688,162.406288 C99.1157355,159.853455 98.5408801,155.139641 101.093712,151.877688 C113.601489,135.895529 132.780936,118.771023 158.655947,100.386147 C165.094428,95.8114361 172.004734,91.8107326 179.31713,88.3469662 C194.453851,81.1769407 210.59068,76.5906841 226.713961,74.0449028 C232.3541,73.1543546 237.599594,72.5809604 242.324151,72.2612536 C243.576491,72.1765088 244.728297,72.1142237 245.772881,72.0711056 L247.28435,72.0196797 C247.83142,72.0053441 248.239129,72 248.5,72 Z M434.229484,112.623895 C437.198624,115.512059 437.264269,120.260343 434.376105,123.229484 C431.487941,126.198624 426.739657,126.264269 423.770516,123.376105 C342.22336,44.0529616 243.310613,29.388905 152.170701,80.5403329 C135.226057,90.050357 113.425026,109.24828 87.030725,138.065677 C84.233029,141.120212 79.4888583,141.328421 76.4343232,138.530725 C73.3797882,135.733029 73.171579,130.988858 75.969275,127.934323 L77.6064943,126.152598 C104.259385,97.2422688 126.584439,77.6994251 144.829299,67.4596671 C241.856697,13.0039422 347.992506,28.7388353 434.229484,112.623895 Z M377.413628,36.6020693 C380.947107,38.7635063 382.059368,43.3801483 379.897931,46.9136278 C377.736494,50.4471074 373.119852,51.5593677 369.586372,49.3979307 C309.172912,12.4428888 233.293125,12.4428888 141.332073,49.9447362 C137.496601,51.5088471 133.119375,49.6675452 131.555264,45.8320733 C129.991153,41.9966014 131.832455,37.6193747 135.667927,36.0552638 C231.706875,-3.10955552 312.493754,-3.10955552 377.413628,36.6020693 Z" id="Combined-Shape" fill-rule="nonzero"></path>
    </g>
</svg>